<svg width="844" height="432" viewBox="0 0 844 432" fill="none" xmlns="http://www.w3.org/2000/svg">
<rect width="844" height="432" fill="white"/>
<rect width="844" height="432" fill="#00A9DE"/>
<path d="M193.134 196.618C197.693 196.618 201.936 197.722 205.593 199.779L205.914 199.963L206.116 200.082L206.116 198.024H216.807V242.274C216.807 255.69 207.653 264.649 194.191 264.649C182.639 264.649 173.577 257.853 171.831 247.865L171.781 247.561L171.35 244.851H182.167L182.566 246.701C183.573 251.361 187.956 254.428 194.191 254.428C201.386 254.428 205.934 249.928 206.027 242.507L206.028 242.274V239.931H206.116V239.834L205.914 239.954C202.389 242.011 198.301 243.169 193.899 243.289L193.485 243.297L193.134 243.299C180.345 243.299 170.254 232.906 170.254 220.134C170.254 206.835 180.174 196.618 193.134 196.618ZM296.374 183L296.374 198.024H311.794V207.893H296.374L296.374 226.372C296.374 232.237 298.09 234.294 302.739 234.393L302.919 234.396L303.1 234.396C304.775 234.396 306.932 234.069 308.98 233.527L309.34 233.429L311.812 232.739L313.644 242.535L311.588 243.121C307.775 244.208 305.166 244.617 302.131 244.617C291.529 244.617 285.798 238.275 285.685 226.724L285.683 226.372L285.683 207.893H274.845V198.024H285.683L285.683 183H296.374ZM248.734 196.969C253.185 196.969 257.214 198.009 260.693 199.985L261.008 200.168L261.099 200.222L261.099 198.024H271.79V243.299H261.099L261.099 241.188L261.008 241.243C257.654 243.222 253.775 244.317 249.489 244.431L249.086 244.439L248.734 244.441C235.759 244.441 225.325 233.857 225.325 220.661C225.325 207.538 235.774 196.969 248.734 196.969ZM249.527 206.926C242.016 206.926 236.104 213.074 236.104 220.661C236.104 228.326 242.004 234.484 249.527 234.484C254.152 234.484 258.13 232.54 261.03 228.778L261.099 228.685V212.725L261.03 212.633C258.185 208.943 254.305 207.002 249.793 206.929L249.527 206.926ZM341.254 196.969C354.123 196.969 363.331 206.903 363.429 220.486L363.428 221.098C363.423 222.032 363.402 222.569 363.34 223.171L363.094 225.376H329.034L329.095 225.58C330.706 230.901 335.037 234.386 340.949 234.565L341.2 234.57L341.43 234.572C346.073 234.572 349.54 232.765 351.037 229.829L351.117 229.668L351.755 228.334H363.044L361.981 231.435C359.244 239.42 351.148 244.441 341.254 244.441C327.705 244.441 317.757 234.171 317.757 220.661C317.757 207.225 327.719 196.969 341.254 196.969ZM193.927 206.575C186.496 206.575 181.033 212.378 181.033 220.134C181.033 227.364 186.662 233.342 193.927 233.342C198.794 233.342 203.104 231.286 206.044 227.393L206.116 227.295V212.622L206.044 212.525C203.158 208.704 198.953 206.652 194.197 206.577L193.927 206.575ZM341.077 206.839C335.182 206.839 330.753 210.388 329.105 215.805L329.037 216.034H352.258L352.218 215.866C350.853 210.314 346.866 206.925 341.293 206.84L341.077 206.839Z" fill="white"/>
<path opacity="0.8" d="M393.356 197.154C393.455 197.154 393.553 197.155 393.651 197.156L423.065 197.157L418.026 207.7L412.324 207.7C414.431 211.094 415.647 215.095 415.647 219.38C415.647 219.52 415.646 219.66 415.643 219.799L415.647 219.799V240.264C415.647 252.594 405.637 262.593 393.285 262.593C385.968 262.593 379.242 259.053 375.078 253.232L374.904 252.984L383.594 246.979C385.789 250.136 389.371 252.05 393.285 252.05C399.725 252.05 404.963 246.885 405.072 240.467L405.073 240.264L405.074 238.291C401.669 240.393 397.655 241.606 393.356 241.606C381.045 241.606 371.066 231.655 371.066 219.38C371.066 207.105 381.045 197.154 393.356 197.154ZM446.225 197.154C458.536 197.154 468.515 207.105 468.515 219.38C468.515 231.655 458.536 241.606 446.225 241.606C433.914 241.606 423.934 231.655 423.934 219.38C423.934 207.105 433.914 197.154 446.225 197.154ZM393.603 207.7H393.11C386.752 207.83 381.639 213.01 381.639 219.38C381.639 225.832 386.885 231.063 393.356 231.063C399.828 231.063 405.073 225.832 405.073 219.38C405.073 213.01 399.96 207.83 393.603 207.7ZM446.225 207.697C439.753 207.697 434.508 212.928 434.508 219.38C434.508 225.832 439.753 231.063 446.225 231.063C452.696 231.063 457.942 225.832 457.942 219.38C457.942 212.928 452.696 207.697 446.225 207.697Z" fill="white"/>
<path d="M516.114 246C532.068 246 541.733 236.131 541.733 219.767C541.733 203.455 532.068 193.636 516.267 193.636H497.551V246H516.114ZM508.622 236.514V203.122H515.679C525.497 203.122 530.688 208.134 530.688 219.767C530.688 231.452 525.497 236.514 515.653 236.514H508.622ZM567.474 246.767C579.388 246.767 586.803 238.611 586.803 226.517C586.803 214.347 579.388 206.216 567.474 206.216C555.559 206.216 548.144 214.347 548.144 226.517C548.144 238.611 555.559 246.767 567.474 246.767ZM567.525 238.33C562.028 238.33 559.215 233.293 559.215 226.44C559.215 219.588 562.028 214.526 567.525 214.526C572.92 214.526 575.732 219.588 575.732 226.44C575.732 233.293 572.92 238.33 567.525 238.33ZM611.63 246.767C622.087 246.767 628.658 240.631 629.17 231.605H618.891C618.252 235.798 615.491 238.151 611.758 238.151C606.67 238.151 603.371 233.881 603.371 226.364C603.371 218.949 606.695 214.705 611.758 214.705C615.746 214.705 618.303 217.338 618.891 221.25H629.17C628.71 212.173 621.832 206.216 611.579 206.216C599.664 206.216 592.3 214.474 592.3 226.517C592.3 238.457 599.536 246.767 611.63 246.767ZM668.82 217.926C667.848 210.69 662.018 206.216 652.098 206.216C642.05 206.216 635.428 210.869 635.453 218.438C635.428 224.318 639.135 228.128 646.805 229.662L653.607 231.017C657.033 231.707 658.592 232.96 658.643 234.929C658.592 237.256 656.061 238.918 652.251 238.918C648.365 238.918 645.783 237.256 645.118 234.06L634.405 234.622C635.428 242.139 641.82 246.767 652.226 246.767C662.402 246.767 669.689 241.577 669.714 233.83C669.689 228.153 665.982 224.753 658.362 223.193L651.254 221.761C647.598 220.969 646.243 219.716 646.268 217.824C646.243 215.472 648.902 213.938 652.277 213.938C656.061 213.938 658.311 216.009 658.848 218.54L668.82 217.926Z" fill="white"/>
</svg>
