<?xml version="1.0" encoding="UTF-8" standalone="no"?>
<svg
   xmlns:dc="http://purl.org/dc/elements/1.1/"
   xmlns:cc="http://creativecommons.org/ns#"
   xmlns:rdf="http://www.w3.org/1999/02/22-rdf-syntax-ns#"
   xmlns:svg="http://www.w3.org/2000/svg"
   xmlns="http://www.w3.org/2000/svg"
   xmlns:sodipodi="http://sodipodi.sourceforge.net/DTD/sodipodi-0.dtd"
   xmlns:inkscape="http://www.inkscape.org/namespaces/inkscape"
   sodipodi:docname="Gatego Logo Circle.svg"
   inkscape:version="1.0 (4035a4fb49, 2020-05-01)"
   id="svg2418"
   version="1.1"
   viewBox="0 0 75.135292 75.135292"
   height="75.135292mm"
   width="75.135292mm">
  <defs
     id="defs2412">
    <clipPath
       id="clipPath3003"
       clipPathUnits="userSpaceOnUse">
      <circle
         r="141.98796"
         cy="141.98795"
         cx="141.98795"
         id="circle3005"
         style="fill:#5aaaed;fill-opacity:1;stroke-width:0.999999" />
    </clipPath>
  </defs>
  <sodipodi:namedview
     inkscape:window-maximized="1"
     inkscape:window-y="-9"
     inkscape:window-x="-9"
     inkscape:window-height="1121"
     inkscape:window-width="1920"
     showgrid="false"
     inkscape:document-rotation="0"
     inkscape:current-layer="layer1"
     inkscape:document-units="mm"
     inkscape:cy="223.72048"
     inkscape:cx="-92.185671"
     inkscape:zoom="0.98994949"
     inkscape:pageshadow="2"
     inkscape:pageopacity="0.0"
     borderopacity="1.0"
     bordercolor="#666666"
     pagecolor="#ffffff"
     id="base" />
  <metadata
     id="metadata2415">
    <rdf:RDF>
      <cc:Work
         rdf:about="">
        <dc:format>image/svg+xml</dc:format>
        <dc:type
           rdf:resource="http://purl.org/dc/dcmitype/StillImage" />
        <dc:title></dc:title>
      </cc:Work>
    </rdf:RDF>
  </metadata>
  <g
     transform="translate(-140.08116,-86.408543)"
     id="layer1"
     inkscape:groupmode="layer"
     inkscape:label="Capa 1">
    <g
       style="fill:none;fill-rule:evenodd;stroke:none;stroke-width:1"
       transform="matrix(0.26458333,0,0,0.26458333,140.08116,86.408543)"
       id="Blue-Icon">
      <rect
         clip-path="url(#clipPath3003)"
         rx="64"
         height="283.97592"
         width="283.97592"
         y="2.8421709e-14"
         x="2.8421709e-14"
         fill="#00a9de"
         id="Rectangle-Copy" />
      <path
         fill-rule="nonzero"
         fill="#ffffff"
         id="Combined-Shape-Copy"
         d="m 190.98796,80.476782 -9.44638,19.820228 -11.2171,4.3e-4 c 3.95072,6.38159 6.2312,13.90608 6.2312,21.9632 0,0.26325 -0.002,0.52594 -0.007,0.78803 l 0.007,-1e-5 v 38.47399 c 0,23.17896 -18.76345,41.9765 -41.91835,41.9765 -13.7145,0 -26.32302,-6.65449 -34.12793,-17.59847 l -0.32692,-0.46497 16.28988,-11.29076 c 4.1137,5.93509 10.82963,9.53397 18.16497,9.53397 12.07334,0 21.89167,-9.71017 22.09491,-21.77451 l 0.003,-0.38176 4.8e-4,-3.70991 c -6.38179,3.95106 -13.90661,6.23176 -21.96412,6.23176 -23.07659,0 -41.783856,-18.70727 -41.783856,-41.78386 0,-23.076588 18.707266,-41.783858 41.783856,-41.783858 v 0 z m -56.21614,19.820228 c -12.13018,0 -21.96363,9.83345 -21.96363,21.96363 0,12.13018 9.83345,21.96363 21.96363,21.96363 12.13018,0 21.96364,-9.83345 21.96364,-21.96363 0,-12.13018 -9.83346,-21.96363 -21.96364,-21.96363 z" />
    </g>
  </g>
</svg>
